HIERARCHY
ROOT pelvis
{
  OFFSET 0 100 0
  CHANNELS 6 Xposition Yposition Zposition Zrotation Xrotation Yrotation
  JOINT pelvis_right_femur
  {
    OFFSET -10.78128 -3.44521 -0.5502486
    CHANNELS 3 Zrotation Xrotation Yrotation
    JOINT right_femur_tibia
    {
      OFFSET -0.8047443 -44.0398 -0.1307829
      CHANNELS 3 Zrotation Xrotation Yrotation
      JOINT right_tibia_foot
      {
        OFFSET 3.006224 -47.83518 -5
        CHANNELS 3 Zrotation Xrotation Yrotation
        End Site
        {
          OFFSET 0 -5 15
        }
      }
    }
  }
  JOINT pelvis_left_femur
  {
    OFFSET 10.78128 -3.44521 -0.5502486
    CHANNELS 3 Zrotation Xrotation Yrotation
    JOINT left_femur_tibia
    {
      OFFSET 0.8047443 -44.0398 -0.1307829
      CHANNELS 3 Zrotation Xrotation Yrotation
      JOINT left_tibia_foot
      {
        OFFSET -4.370144 -48.10324 -4.275266
        CHANNELS 3 Zrotation Xrotation Yrotation
        End Site
        {
          OFFSET 0 -5 15
        }
      }
    }
  }
  JOINT pelvis_spine1
  {
    OFFSET 0 6.468898 -3.129235
    CHANNELS 3 Zrotation Xrotation Yrotation
    JOINT spine1
    {
      OFFSET 0 23.15396 4.99043
      CHANNELS 3 Zrotation Xrotation Yrotation
      JOINT spine2
      {
        OFFSET 0 20.79997 -5.064912
        CHANNELS 3 Zrotation Xrotation Yrotation
        JOINT neck
        {
          OFFSET 0 14.38658 9.616178
          CHANNELS 3 Zrotation Xrotation Yrotation
          End Site
          {
            OFFSET 0 20 0
          }
        }
      }
      JOINT right_manubrium
      {
        OFFSET -5.722621 16.35077 3.967754
        CHANNELS 3 Zrotation Xrotation Yrotation
        JOINT right_clavicle
        {
          OFFSET -13.16364 1.694482 -4.693211
          CHANNELS 3 Zrotation Xrotation Yrotation
          JOINT right_humerus
          {
            OFFSET -28.5034 -0.3100689 -2.792744
            CHANNELS 3 Zrotation Xrotation Yrotation
            JOINT right_radius
            {
              OFFSET -25.15693 0.02248979 -1.271978
              CHANNELS 3 Zrotation Xrotation Yrotation
              End Site
              {
                OFFSET -15 0 0
              }
            }
          }
        }
      }
      JOINT left_manubrium
      {
        OFFSET 5.722621 16.35077 3.967754
        CHANNELS 3 Zrotation Xrotation Yrotation
        JOINT left_clavicle
        {
          OFFSET 13.16364 1.694482 -4.693211
          CHANNELS 3 Zrotation Xrotation Yrotation
          JOINT left_humerus
          {
            OFFSET 29.39168 -1.063119 -2.237045
            CHANNELS 3 Zrotation Xrotation Yrotation
            JOINT left_radius
            {
              OFFSET 24.59957 -0.9528479 0.9047498
              CHANNELS 3 Zrotation Xrotation Yrotation
              End Site
              {
                OFFSET 15 -0 -0
              }
            }
          }
        }
      }
    }
  }
}
MOTION
Frames: 13
Frame Time: 0.0416666666667
0 103.5113 0 1.115523 -0.3538853 -0.2903414 4.110052 -16.66463 10.98209 -0 39.70661 -0 -4.535024 -17.96747 -2.609868 -7.432828 8.633182 -24.02864 -0 7.169515 -0 13.73859 -12.66702 30.38762 -3.879396 -3.964142 5.370994 2.45639 10.74535 -7.657962 1.40905 21.16496 6.847874 3.568467 -24.0549 9.394886 8.137891 -20.29546 12.21294 83.76163 40.21916 -16.6055 -0 0 18.31788 -6.490849 9.26219 3.828932 6.190338 -18.71249 -1.317746 -92.37579 20.61003 20.59705 0 0 -14.1114 14.72367 14.06611 -4.082165
0.3844433 104.2506 1.419327 1.085287 -0.1845109 -0.5480591 4.1802 -17.66578 10.5492 -0 38.40232 -0 -4.525402 -17.32375 -2.486707 -7.426414 8.920494 -23.62401 -0 6.836414 -0 13.62905 -13.20641 29.94892 -3.871239 -3.844035 5.344867 2.492088 10.6755 -7.663056 1.406567 21.16135 6.846759 3.540525 -24.15723 9.400332 7.910508 -20.21969 12.15527 84.04277 39.82654 -16.92687 -0 0 17.9389 -6.624964 9.141098 3.90049 6.314668 -18.98572 -1.381801 -92.11104 20.61173 20.25437 0 0 -14.81329 14.81227 13.98251 -4.08765
0.7168865 104.5484 3.669406 0.7645812 0.06402884 -0.5504782 4.164811 -22.79085 7.224845 -0 31.53138 -0 -5.217182 -12.68694 -1.939842 -7.103919 11.05506 -20.76716 -0 5.448974 -0 11.80415 -16.36231 26.53642 -3.640031 -3.008608 4.701104 2.6149 10.23591 -7.632173 1.328826 21.56762 6.892201 3.36031 -24.30258 9.290807 6.190182 -19.50203 11.80273 86.00692 36.20601 -18.85623 -0 0 14.88677 -8.464894 8.446832 4.805219 6.837366 -20.76341 -2.166704 -90.49289 21.13254 17.90033 0 0 -18.48556 14.4529 14.2332 -3.191468
1.018972 104.6604 6.315246 0.5642748 0.6813469 -0.4266228 4.471035 -25.79938 6.169822 -0 27.49938 -0 -5.240182 -10.77813 -1.722321 -7.066001 12.21761 -19.59615 -0 5.0708 -0 10.98052 -18.05972 25.117 -3.517705 -2.709888 4.562287 2.776281 9.931085 -7.684392 1.346134 21.58546 6.897205 3.221584 -24.70263 9.401604 5.448275 -19.19977 11.56305 86.89938 34.93349 -19.97147 -0 0 13.59582 -8.649683 8.10288 4.89761 7.105599 -21.50325 -2.282126 -90.00776 21.76606 17.20154 0 0 -20.57382 14.04162 14.217 -2.332847
1.293917 104.6175 9.36303 0.3300794 1.333796 -0.1868948 4.845408 -28.57853 5.29931 -0 23.72867 -0 -5.345465 -8.90237 -1.497315 -7.006708 13.29544 -18.45678 -0 5.163852 -0 10.20528 -19.41822 23.781 -3.342585 -2.49248 4.425157 2.929724 9.725002 -7.777953 1.350623 21.52906 6.90747 3.12489 -25.06555 9.480797 4.83727 -18.91189 11.35703 87.70437 33.98372 -21.0161 -0 0 12.42376 -8.811094 7.884594 4.949819 7.344136 -22.19634 -2.374725 -89.52604 22.13254 16.56182 0 0 -22.47358 13.81959 14.07832 -1.75301
1.546175 104.4839 12.77685 0.02441468 2.011912 0.1546147 5.367552 -30.95487 4.822319 -0 20.64672 -0 -5.504102 -7.274302 -1.33156 -6.894417 14.27195 -17.53553 -0 5.690092 -0 9.326727 -20.48875 22.6006 -3.109041 -2.32873 4.269247 3.087094 9.535009 -7.884201 1.359042 21.43316 6.941058 3.062757 -25.43508 9.593476 4.410267 -18.62435 11.1612 88.3294 33.41849 -21.92621 -0 0 11.47298 -8.78086 7.77151 4.901615 7.489212 -22.68767 -2.39898 -89.31159 22.64387 16.27983 0 0 -23.87662 13.41588 13.97166 -0.9942543
1.778855 104.3155 16.56895 -0.3735442 2.668904 0.5878513 6.020978 -32.99215 4.568777 -0 18.09548 -0 -5.804156 -5.696642 -1.178704 -6.684022 15.16732 -16.68573 -0 6.785262 -0 8.240298 -21.23434 21.38281 -2.776301 -2.182898 4.050781 3.226707 9.375648 -7.992826 1.364607 21.31311 6.995906 3.045488 -25.74447 9.703417 4.121532 -18.29122 10.97391 88.83007 33.13106 -22.70673 -0 0 10.64794 -8.715267 7.777829 4.815531 7.555357 -23.03184 -2.416769 -89.24638 23.14801 16.19513 0 0 -24.81092 12.93906 13.866 -0.2125145
1.997418 104.1831 20.76267 -0.88254 3.287507 1.098033 6.819998 -34.58635 4.529088 -0 16.16078 -0 -6.281286 -4.19315 -1.017041 -6.33902 15.90792 -15.89588 -0 8.640209 -0 6.870232 -21.53312 20.04665 -2.30764 -2.042004 3.759041 3.333405 9.251168 -8.094299 1.362581 21.16454 7.075399 3.084654 -25.96509 9.796531 3.996569 -17.89746 10.80084 89.18172 33.17197 -23.30838 -0 0 9.987864 -8.638297 7.931886 4.703581 7.52554 -23.19235 -2.44211 -89.33726 23.59364 16.32686 0 0 -25.16341 12.40561 13.74423 0.5516416
2.211161 104.1747 25.39565 -1.510068 3.831422 1.658105 7.740159 -35.53961 4.636117 -0 14.91604 -0 -6.978297 -2.811074 -0.8127952 -5.82822 16.35454 -15.11303 -0 11.58533 -0 5.169863 -21.16043 18.47838 -1.658757 -1.908228 3.397895 3.388162 9.192558 -8.188782 1.332114 20.97902 7.181558 3.188751 -26.06041 9.83231 4.05187 -17.44632 10.66555 89.37968 33.56892 -23.69157 -0 0 9.52732 -8.621677 8.268755 4.607633 7.373947 -23.15846 -2.50487 -89.54753 23.84685 16.66902 0 0 -24.85852 11.88141 13.56125 1.197109
2.435797 104.4028 30.50233 -2.234214 4.235272 2.216158 8.693665 -35.49614 4.78492 -0 14.47599 -0 -7.902062 -1.720834 -0.546089 -5.145783 16.26712 -14.28457 -0 16.07845 -0 3.153651 -19.80841 16.58895 -0.8015185 -1.796208 3.008323 3.374052 9.239499 -8.278434 1.238025 20.75802 7.313945 3.353085 -26.00644 9.756115 4.293754 -16.97121 10.60912 89.42434 34.31124 -23.82159 -0 0 9.313588 -8.741073 8.807121 4.586825 7.056341 -22.92738 -2.635104 -89.84182 23.78713 17.24382 0 0 -23.84589 11.40832 13.27304 1.662641
2.693574 104.9987 36.08216 -2.960853 4.367624 2.678388 9.475401 -33.94983 4.79201 -0 14.89676 -0 -8.979675 -1.240572 -0.2428797 -4.346969 15.30355 -13.35573 -0 22.65871 -0 0.954034 -17.19077 14.37143 0.2261967 -1.715765 2.694116 3.277508 9.423504 -8.351479 1.041509 20.54428 7.456803 3.547721 -25.78654 9.504385 4.682234 -16.53345 10.68281 89.33755 35.26343 -23.68523 -0 0 9.361645 -9.077894 9.512463 4.711311 6.525021 -22.53165 -2.860652 -90.17022 23.3685 18.05223 0 0 -22.17959 10.97709 12.86593 1.967143
3.005421 106.0811 42.04767 -3.471049 4.010068 2.904018 9.767059 -30.40993 4.438052 -0 15.98329 -0 -10.01088 -1.768542 -0.009220685 -3.584835 13.07823 -12.31432 -0 31.67022 -0 -1.143267 -13.34583 12.01604 1.235866 -1.624978 2.638848 3.085629 9.728206 -8.345859 0.7415423 20.45712 7.558821 3.720513 -25.37272 9.033626 5.108446 -16.19702 10.91639 89.14996 36.13127 -23.28226 -0 0 9.610823 -9.682296 10.26047 5.013669 5.779578 -22.05487 -3.186726 -90.47217 22.7239 18.99958 0 0 -20.09758 10.50232 12.4123 2.241927
3.36764 107.6852 48.18236 -3.439776 2.899799 2.758451 9.285243 -24.80154 3.623605 -0 17.07893 -0 -10.72023 -3.472695 -0.006644733 -3.078648 9.348751 -11.24658 -0 42.62893 -0 -2.797803 -9.045716 10.00168 1.847371 -1.383098 3.04039 2.776175 10.05232 -8.117321 0.4385553 20.69182 7.52019 3.83062 -24.67685 8.364657 5.409153 -15.97182 11.26291 88.85205 36.54977 -22.56336 -0 0 9.901708 -10.54478 10.8583 5.428871 4.950152 -21.61735 -3.571558 -90.68943 22.18204 19.80067 0 0 -18.00656 9.870661 12.11364 2.652422
